<svg width="24" height="24" viewBox="0 0 24 24" fill="none" xmlns="http://www.w3.org/2000/svg">
<path d="M9.29291 18.7072C9.10544 18.5197 9.00013 18.2654 9.00013 18.0002C9.00013 17.735 9.10544 17.4807 9.29291 17.2932L14.5859 12.0002L9.29291 6.70722C9.1974 6.61497 9.12122 6.50462 9.06881 6.38262C9.0164 6.26061 8.98882 6.12939 8.98766 5.99662C8.98651 5.86384 9.01181 5.73216 9.06209 5.60926C9.11237 5.48637 9.18663 5.37471 9.28052 5.28082C9.37441 5.18693 9.48606 5.11267 9.60896 5.06239C9.73186 5.01211 9.86353 4.98681 9.99631 4.98796C10.1291 4.98912 10.2603 5.0167 10.3823 5.06911C10.5043 5.12152 10.6147 5.1977 10.7069 5.29321L16.7069 11.2932C16.8944 11.4807 16.9997 11.735 16.9997 12.0002C16.9997 12.2654 16.8944 12.5197 16.7069 12.7072L10.7069 18.7072C10.5194 18.8947 10.2651 19 9.99991 19C9.73475 19 9.48044 18.8947 9.29291 18.7072Z" fill="#D2D5DA"/>
</svg>
