<svg width="40" height="40" viewBox="0 0 40 40" fill="none" xmlns="http://www.w3.org/2000/svg">
<path d="M8.75 5C6.67893 5 5 6.67893 5 8.75V11.7313C5 13.0309 5.6728 14.2378 6.77818 14.9211L16.4428 20.8956C14.0952 22.1627 12.5 24.6451 12.5 27.5C12.5 31.6423 15.8579 35 20 35C24.1421 35 27.5 31.6423 27.5 27.5C27.5 24.6451 25.9047 22.1627 23.5572 20.8956L33.2218 14.9211C34.3272 14.2378 35 13.0309 35 11.7313V8.75C35 6.67893 33.321 5 31.25 5H8.75ZM7.5 8.75C7.5 8.05965 8.05965 7.5 8.75 7.5H12.5V15.5191L8.09273 12.7946C7.72428 12.5668 7.5 12.1645 7.5 11.7313V8.75ZM15 17.0645V7.5H25V17.0645L20.6573 19.7491C20.2545 19.9981 19.7455 19.9981 19.3427 19.7491L15 17.0645ZM27.5 15.5191V7.5H31.25C31.9403 7.5 32.5 8.05965 32.5 8.75V11.7313C32.5 12.1645 32.2758 12.5668 31.9073 12.7946L27.5 15.5191ZM15 27.5C15 24.7386 17.2386 22.5 20 22.5C22.7614 22.5 25 24.7386 25 27.5C25 30.2615 22.7614 32.5 20 32.5C17.2386 32.5 15 30.2615 15 27.5Z" fill="#2563EB"/>
</svg>
