<svg width="40" height="40" viewBox="0 0 40 40" fill="none" xmlns="http://www.w3.org/2000/svg">
<path d="M4 11.5C4 8.46244 6.46244 6 9.5 6H11C11.8284 6 12.5 6.67158 12.5 7.5C12.5 8.32842 11.8284 9 11 9H9.5C8.11928 9 7 10.1193 7 11.5V13C7 13.8284 6.32842 14.5 5.5 14.5C4.67158 14.5 4 13.8284 4 13V11.5ZM27.5 7.5C27.5 6.67158 28.1716 6 29 6H30.5C33.5376 6 36 8.46244 36 11.5V13C36 13.8284 35.3284 14.5 34.5 14.5C33.6716 14.5 33 13.8284 33 13V11.5C33 10.1193 31.8808 9 30.5 9H29C28.1716 9 27.5 8.32842 27.5 7.5ZM5.5 25.5C6.32842 25.5 7 26.1716 7 27V28.5C7 29.8808 8.11928 31 9.5 31H11C11.8284 31 12.5 31.6716 12.5 32.5C12.5 33.3284 11.8284 34 11 34H9.5C6.46244 34 4 31.5376 4 28.5V27C4 26.1716 4.67158 25.5 5.5 25.5ZM34.5 25.5C35.3284 25.5 36 26.1716 36 27V28.5C36 31.5376 33.5376 34 30.5 34H29C28.1716 34 27.5 33.3284 27.5 32.5C27.5 31.6716 28.1716 31 29 31H30.5C31.8808 31 33 29.8808 33 28.5V27C33 26.1716 33.6716 25.5 34.5 25.5ZM11 12C11.8284 12 12.5 12.6716 12.5 13.5V26.5C12.5 27.3284 11.8284 28 11 28C10.1716 28 9.5 27.3284 9.5 26.5V13.5C9.5 12.6716 10.1716 12 11 12ZM18.5 13.5C18.5 12.6716 17.8284 12 17 12C16.1716 12 15.5 12.6716 15.5 13.5V26.5C15.5 27.3284 16.1716 28 17 28C17.8284 28 18.5 27.3284 18.5 26.5V13.5ZM23 12C23.8284 12 24.5 12.6716 24.5 13.5V26.5C24.5 27.3284 23.8284 28 23 28C22.1716 28 21.5 27.3284 21.5 26.5V13.5C21.5 12.6716 22.1716 12 23 12ZM30.5 13.5C30.5 12.6716 29.8284 12 29 12C28.1716 12 27.5 12.6716 27.5 13.5V26.5C27.5 27.3284 28.1716 28 29 28C29.8284 28 30.5 27.3284 30.5 26.5V13.5Z" fill="#2563EB"/>
</svg>
