<svg width="40" height="40" viewBox="0 0 40 40" fill="none" xmlns="http://www.w3.org/2000/svg">
<g clip-path="url(#clip0_906_3334)">
<path fill-rule="evenodd" clip-rule="evenodd" d="M12.3354 6.05536C12.5716 5.74222 12.9411 5.55811 13.3333 5.55811H18.3333C18.7819 5.55811 19.1961 5.79846 19.4186 6.18793L25.7254 17.2248H33.3333C34.5489 17.2248 35.7147 17.7077 36.5742 18.5672C37.4338 19.4267 37.9167 20.5925 37.9167 21.8081C37.9167 23.0237 37.4338 24.1895 36.5742 25.049C35.7147 25.9086 34.5489 26.3914 33.3333 26.3914H8.33334C7.85988 26.3914 7.42705 26.1239 7.21531 25.7005L2.21531 15.7005C2.02157 15.313 2.04227 14.8528 2.27003 14.4843C2.49779 14.1158 2.90012 13.8914 3.33334 13.8914H8.33334C8.66487 13.8914 8.98281 14.0231 9.21723 14.2576L12.1844 17.2248H15.0095L12.1314 7.15151C12.0237 6.77436 12.0992 6.3685 12.3354 6.05536ZM14.9905 8.05811L17.8686 18.1314C17.9763 18.5085 17.9008 18.9144 17.6646 19.2275C17.4284 19.5407 17.0589 19.7248 16.6667 19.7248H11.6667C11.3352 19.7248 11.0172 19.5931 10.7828 19.3587L7.81558 16.3914H5.35589L9.10589 23.8914H33.3333C33.8859 23.8914 34.4158 23.6719 34.8065 23.2812C35.1972 22.8905 35.4167 22.3606 35.4167 21.8081C35.4167 21.2556 35.1972 20.7257 34.8065 20.335C34.4158 19.9443 33.8859 19.7248 33.3333 19.7248H25C24.5514 19.7248 24.1373 19.4844 23.9147 19.0949L17.6079 8.05811H14.9905Z" fill="#2563EB"/>
<path fill-rule="evenodd" clip-rule="evenodd" d="M3.75 35C3.75 34.3096 4.30964 33.75 5 33.75H35C35.6904 33.75 36.25 34.3096 36.25 35C36.25 35.6904 35.6904 36.25 35 36.25H5C4.30964 36.25 3.75 35.6904 3.75 35Z" fill="#2563EB"/>
</g>
<defs>
<clipPath id="clip0_906_3334">
<rect width="40" height="40" fill="white"/>
</clipPath>
</defs>
</svg>
