<svg width="40" height="40" viewBox="0 0 40 40" fill="none" xmlns="http://www.w3.org/2000/svg">
<g clip-path="url(#clip0_914_3578)">
<path fill-rule="evenodd" clip-rule="evenodd" d="M6.66667 14.5835C6.43655 14.5835 6.25 14.77 6.25 15.0002V18.3335C6.25 18.5636 6.43655 18.7502 6.66667 18.7502H33.3333C33.5635 18.7502 33.75 18.5636 33.75 18.3335V15.0002C33.75 14.77 33.5635 14.5835 33.3333 14.5835H6.66667ZM3.75 15.0002C3.75 13.3893 5.05584 12.0835 6.66667 12.0835H33.3333C34.9442 12.0835 36.25 13.3893 36.25 15.0002V18.3335C36.25 19.9443 34.9442 21.2502 33.3333 21.2502H6.66667C5.05584 21.2502 3.75 19.9443 3.75 18.3335V15.0002Z" fill="#2563EB"/>
<path fill-rule="evenodd" clip-rule="evenodd" d="M20 12.0835C20.6904 12.0835 21.25 12.6431 21.25 13.3335V35.0002C21.25 35.6905 20.6904 36.2502 20 36.2502C19.3096 36.2502 18.75 35.6905 18.75 35.0002V13.3335C18.75 12.6431 19.3096 12.0835 20 12.0835Z" fill="#2563EB"/>
<path fill-rule="evenodd" clip-rule="evenodd" d="M8.33334 18.75C9.0237 18.75 9.58334 19.3096 9.58334 20V31.6667C9.58334 32.2192 9.80284 32.7491 10.1935 33.1398C10.5842 33.5305 11.1141 33.75 11.6667 33.75H28.3333C28.8859 33.75 29.4158 33.5305 29.8065 33.1398C30.1972 32.7491 30.4167 32.2192 30.4167 31.6667V20C30.4167 19.3096 30.9763 18.75 31.6667 18.75C32.357 18.75 32.9167 19.3096 32.9167 20V31.6667C32.9167 32.8822 32.4338 34.048 31.5742 34.9076C30.7147 35.7671 29.5489 36.25 28.3333 36.25H11.6667C10.4511 36.25 9.28531 35.7671 8.42577 34.9076C7.56623 34.048 7.08334 32.8822 7.08334 31.6667V20C7.08334 19.3096 7.64299 18.75 8.33334 18.75Z" fill="#2563EB"/>
<path fill-rule="evenodd" clip-rule="evenodd" d="M16.0921 8.07457C14.9325 6.78613 13.6821 6.22936 12.5218 6.24957L12.5 6.24976C11.7265 6.24976 10.9846 6.55705 10.4376 7.10403C9.89063 7.65101 9.58334 8.39288 9.58334 9.16643C9.58334 9.93998 9.89063 10.6818 10.4376 11.2288C10.9846 11.7758 11.7265 12.0831 12.5 12.0831C13.1904 12.0831 13.75 12.6427 13.75 13.3331C13.75 14.0234 13.1904 14.5831 12.5 14.5831C11.0634 14.5831 9.68567 14.0124 8.66985 12.9966C7.65403 11.9808 7.08334 10.603 7.08334 9.16643C7.08334 7.72984 7.65403 6.35209 8.66985 5.33627C9.68308 4.32303 11.0564 3.75267 12.489 3.74977C14.5402 3.71766 16.4369 4.72054 17.9504 6.40216C18.7474 7.28775 19.4347 8.35454 20 9.55151C20.5653 8.35454 21.2526 7.28775 22.0497 6.40216C23.5631 4.72054 25.4598 3.71766 27.511 3.74977C28.9436 3.75267 30.3169 4.32303 31.3302 5.33627C32.346 6.35209 32.9167 7.72984 32.9167 9.16643C32.9167 10.603 32.346 11.9808 31.3302 12.9966C30.3144 14.0124 28.9366 14.5831 27.5 14.5831C26.8097 14.5831 26.25 14.0234 26.25 13.3331C26.25 12.6427 26.8097 12.0831 27.5 12.0831C28.2736 12.0831 29.0154 11.7758 29.5624 11.2288C30.1094 10.6818 30.4167 9.93998 30.4167 9.16643C30.4167 8.39288 30.1094 7.65101 29.5624 7.10403C29.0154 6.55705 28.2736 6.24976 27.5 6.24976L27.4782 6.24957C26.318 6.22936 25.0675 6.78613 23.9079 8.07457C22.742 9.37007 21.782 11.2903 21.2148 13.6279C21.0787 14.1884 20.5768 14.5831 20 14.5831C19.4232 14.5831 18.9213 14.1884 18.7853 13.6279C18.218 11.2903 17.2581 9.37007 16.0921 8.07457Z" fill="#2563EB"/>
</g>
<defs>
<clipPath id="clip0_914_3578">
<rect width="40" height="40" fill="white"/>
</clipPath>
</defs>
</svg>
