<svg width="24" height="24" viewBox="0 0 24 24" fill="none" xmlns="http://www.w3.org/2000/svg">
<path d="M5.29279 9.29308C5.48031 9.10561 5.73462 9.0003 5.99979 9.0003C6.26495 9.0003 6.51926 9.10561 6.70679 9.29308L11.9998 14.5861L17.2928 9.29308C17.385 9.19757 17.4954 9.12139 17.6174 9.06898C17.7394 9.01657 17.8706 8.98898 18.0034 8.98783C18.1362 8.98668 18.2678 9.01198 18.3907 9.06226C18.5136 9.11254 18.6253 9.18679 18.7192 9.28069C18.8131 9.37458 18.8873 9.48623 18.9376 9.60913C18.9879 9.73202 19.0132 9.8637 19.012 9.99648C19.0109 10.1293 18.9833 10.2605 18.9309 10.3825C18.8785 10.5045 18.8023 10.6148 18.7068 10.7071L12.7068 16.7071C12.5193 16.8946 12.265 16.9999 11.9998 16.9999C11.7346 16.9999 11.4803 16.8946 11.2928 16.7071L5.29279 10.7071C5.10532 10.5196 5 10.2652 5 10.0001C5 9.73492 5.10532 9.48061 5.29279 9.29308Z" fill="#D2D5DA"/>
</svg>
