<svg width="24" height="24" viewBox="0 0 24 24" fill="none" xmlns="http://www.w3.org/2000/svg">
<path fill-rule="evenodd" clip-rule="evenodd" d="M15 3.9001C12.1834 3.9001 9.90001 6.18344 9.90001 9.0001C9.90001 9.51687 9.97658 10.0142 10.1184 10.4819C10.2147 10.7997 10.1282 11.1446 9.89347 11.3794L3.92929 17.3436L3.92924 17.3436C3.91058 17.3623 3.90001 17.3877 3.90001 17.4143V20.0001C3.90001 20.0553 3.94477 20.1001 4.00001 20.1001H6.10001V19.0001C6.10001 18.503 6.50295 18.1001 7.00001 18.1001H8.10001V17.0001C8.10001 16.503 8.50295 16.1001 9.00001 16.1001H10.6272L12.6207 14.1066C12.8555 13.8718 13.2004 13.7854 13.5182 13.8817C13.9861 14.0235 14.4832 14.1001 15 14.1001C17.8166 14.1001 20.1 11.8167 20.1 9.0001C20.1 6.18344 17.8167 3.9001 15 3.9001ZM8.10001 9.0001C8.10001 5.18933 11.1893 2.1001 15 2.1001C18.8108 2.1001 21.9 5.18933 21.9 9.0001C21.9 12.8109 18.8108 15.9001 15 15.9001C14.4962 15.9001 14.0043 15.846 13.5299 15.7429L11.6364 17.6365C11.4676 17.8053 11.2387 17.9001 11 17.9001H9.90001V19.0001C9.90001 19.4972 9.49706 19.9001 9.00001 19.9001H7.90001V21.0001C7.90001 21.4972 7.49706 21.9001 7.00001 21.9001H4.00001C2.95068 21.9001 2.10001 21.0495 2.10001 20.0001V17.4143C2.10001 16.9105 2.30014 16.4271 2.6565 16.0708C2.65652 16.0708 2.65653 16.0708 2.65655 16.0708L8.25713 10.4702C8.15413 9.99581 8.10001 9.50383 8.10001 9.0001ZM14.1 7.0001C14.1 6.50304 14.5029 6.1001 15 6.1001C16.6017 6.1001 17.9 7.39848 17.9 9.0001C17.9 9.49715 17.4971 9.9001 17 9.9001C16.5029 9.9001 16.1 9.49715 16.1 9.0001C16.1 8.39258 15.6075 7.9001 15 7.9001C14.5029 7.9001 14.1 7.49715 14.1 7.0001Z" fill="#2563EB"/>
</svg>
