<svg width="40" height="40" viewBox="0 0 40 40" fill="none" xmlns="http://www.w3.org/2000/svg">
<g clip-path="url(#clip0_918_3968)">
<path d="M14.3573 1.42819L14.3576 1.42793C14.564 1.19337 14.8545 0.963673 15.2515 0.852873C15.6165 0.751018 15.9552 0.782526 16.2243 0.845005C16.2223 0.844458 16.2212 0.844086 16.2212 0.843873C16.2215 0.842175 16.2898 0.850456 16.4735 0.859505C16.6852 0.869935 16.9718 0.878793 17.3134 0.885772C17.9946 0.899687 18.8648 0.905551 19.7298 0.903603C20.595 0.901655 21.4462 0.891911 22.0899 0.875054C22.4135 0.866578 22.6741 0.856565 22.8543 0.845614C22.8817 0.843949 22.9059 0.842342 22.9269 0.840832C23.6055 0.590403 24.2296 0.891342 24.566 1.14954C24.9432 1.43916 25.2461 1.85622 25.4863 2.2591C25.9841 3.09411 26.4573 4.29056 26.8445 5.66731L27.081 6.50793L27.7653 6.67658C27.7653 6.67658 27.7654 6.67659 27.7654 6.67659C28.6731 6.90025 29.5695 7.21494 30.3145 7.55894C30.687 7.73095 31.0385 7.91801 31.3421 8.11481C31.6292 8.30095 31.9441 8.54056 32.1798 8.8365L14.3573 1.42819ZM14.3573 1.42819C13.9923 1.84325 13.7441 2.43663 13.5594 3.00265C13.3611 3.61061 13.1843 4.3559 13.0314 5.20229L13.0314 5.2023C12.9448 5.68196 12.8578 6.15813 12.795 6.49849C12.6346 6.54567 12.4254 6.60067 12.1485 6.66891L12.1485 6.66892C10.6086 7.04852 9.36452 7.53831 8.50223 8.14792C7.66283 8.74135 6.89328 9.68597 7.1302 10.9139C7.34086 12.0057 8.26972 12.7538 9.21233 13.2552C9.75776 13.5454 10.4082 13.8073 11.1549 14.039M14.3573 1.42819L11.1549 14.039M11.1549 14.039C11.1539 14.0599 11.1534 14.0808 11.1534 14.1017C11.1534 14.3882 11.243 14.6129 11.2948 14.726C11.3546 14.8566 11.4252 14.968 11.4856 15.0536C11.6068 15.2256 11.7517 15.3847 11.8892 15.5163C12.027 15.6484 12.1916 15.7857 12.3675 15.8995C12.4179 15.9321 12.4762 15.9673 12.541 16.0016C12.5598 16.0462 12.5796 16.0978 12.599 16.1554L11.1549 14.039ZM17.5256 23.4723C17.4933 23.5909 17.4595 23.7135 17.4248 23.8381C17.3624 24.0619 17.3073 24.2751 17.2622 24.4632C17.3318 24.5042 17.4047 24.5463 17.4796 24.5886L17.5256 23.4723ZM17.5256 23.4723L17.5543 23.5468L17.8605 24.3426L17.8605 24.3427C17.9408 24.5513 17.9629 24.6173 17.9763 24.6774C17.984 24.712 17.994 24.7688 17.9957 24.8892M17.5256 23.4723L17.9957 24.8892M22.627 24.4595C22.5819 24.2713 22.5267 24.0579 22.4639 23.8338L22.4638 23.8335C22.4125 23.6503 22.3631 23.471 22.3174 23.3024C22.299 23.5328 22.2441 23.7377 22.1911 23.9037C22.1188 24.1301 22.0151 24.3849 21.9066 24.6472L22.627 24.4595ZM22.627 24.4595C22.5556 24.5017 22.4806 24.5451 22.4035 24.5886C22.2181 24.6934 22.0418 24.7961 21.8901 24.8876C21.8901 24.7834 21.8949 24.7209 21.8997 24.6843C21.9026 24.6614 21.9052 24.6514 21.9056 24.65L21.9056 24.6497C21.9058 24.6493 21.9058 24.6491 21.9065 24.6474L22.627 24.4595ZM27.3566 15.9806C27.3554 15.9834 27.3542 15.9862 27.353 15.989C27.3147 16.0789 27.2687 16.201 27.2127 16.3671L27.2127 16.3671C26.8187 17.5364 26.1226 18.6682 25.3006 19.6026C24.9627 19.9867 24.5922 20.3502 24.1983 20.6756C24.6359 20.7379 25.1758 20.847 25.7371 20.9792C26.9745 21.2706 28.4863 21.7147 29.4837 22.1425C30.241 22.4673 31.1729 22.9911 32.0181 23.5316C32.8565 24.0678 33.6947 24.6748 34.2352 25.1883L34.2354 25.1884L34.8611 25.7831L35.2815 26.1827L35.2479 26.7616L35.131 28.7758C34.9899 31.21 34.5797 33.2011 33.7056 34.4558L33.7055 34.4558C33.3301 34.9946 32.7583 35.5926 32.2007 36.0944C31.6516 36.5886 31.0067 37.0884 30.4541 37.3668L29.8916 36.2505L30.4541 37.3669C29.5587 37.818 28.2081 38.2418 26.9117 38.5505C25.6153 38.8593 24.2185 39.0898 23.2157 39.0908L22.5981 39.0914L22.4489 39.0916C22.3876 39.1164 22.336 39.1319 22.3037 39.141C22.2265 39.1625 22.159 39.174 22.121 39.18C22.0395 39.1928 21.9551 39.2007 21.8857 39.2061C21.7404 39.2175 21.5568 39.2257 21.3598 39.2319C20.9609 39.2445 20.4468 39.2503 19.9393 39.25C19.4317 39.2496 18.9177 39.2431 18.5187 39.23C18.3217 39.2235 18.1382 39.215 17.9928 39.2034C17.9234 39.1978 17.839 39.1898 17.7576 39.1769C17.7196 39.1709 17.6522 39.1593 17.5751 39.1377C17.5368 39.127 17.4718 39.1072 17.3956 39.0737C17.3863 39.0696 17.3741 39.0641 17.3596 39.0572C17.3266 39.0637 17.301 39.0676 17.285 39.07C17.068 39.1025 16.8303 39.0958 16.6443 39.0875C16.434 39.0781 16.1672 39.0588 15.846 39.0344C13.8897 38.8859 11.2379 38.2194 9.66891 37.4576L9.6688 37.4575C8.32977 36.8072 6.9923 35.6523 6.11841 34.4069C5.6553 33.747 5.34664 32.8581 5.14303 31.9109C4.93452 30.9408 4.81544 29.8098 4.79094 28.5922C4.79094 28.5922 4.79094 28.5921 4.79094 28.5921L4.75025 26.5714L4.73886 26.0058L5.15633 25.6239L5.72372 25.1049L5.72383 25.1048C6.26125 24.6134 7.10144 24.0176 7.92927 23.4942C8.76065 22.9685 9.67238 22.4571 10.3768 22.1595L27.3566 15.9806ZM27.3566 15.9806C27.5189 15.9024 27.6499 15.8117 27.7403 15.7434C27.9083 15.6166 28.0629 15.4691 28.192 15.3226C28.3126 15.1856 28.4589 14.9953 28.5644 14.773C28.6145 14.6673 28.6925 14.4783 28.7128 14.2392C28.7174 14.1849 28.7193 14.121 28.7155 14.0504M27.3566 15.9806L28.7155 14.0504M28.7155 14.0504C29.9126 13.6801 31.0015 13.1891 31.7601 12.5314C32.2618 12.0965 32.6741 11.5127 32.77 10.7875C32.8684 10.0434 32.6051 9.37037 32.18 8.83665L28.7155 14.0504ZM17.9957 24.8892C17.8435 24.7974 17.6662 24.694 17.4798 24.5887L17.9957 24.8892ZM15.6988 20.6727C14.3255 19.5829 13.2205 18.0033 12.599 16.1556L15.6988 20.6727ZM15.6988 20.6727C15.3581 20.7275 14.9239 20.8135 14.387 20.9253C12.6078 21.2958 11.931 21.5029 10.3769 22.1595L15.6988 20.6727ZM13.0932 6.3958C13.0932 6.39582 13.0917 6.39664 13.0884 6.39821C13.0914 6.39657 13.0931 6.39578 13.0932 6.3958ZM12.4536 15.8272C12.4536 15.8271 12.4545 15.8284 12.4564 15.8313C12.4545 15.8286 12.4535 15.8272 12.4536 15.8272ZM17.8667 21.8893C17.928 21.911 17.9896 21.9318 18.0514 21.9518L17.8466 22.1953C17.8484 22.1848 17.8502 22.1737 17.852 22.1623L17.8523 22.1603C17.8552 22.1409 17.8683 22.0564 17.8683 21.9543C17.8683 21.933 17.8678 21.9113 17.8667 21.8893ZM16.042 38.0514C16.0452 38.0597 16.0446 38.0588 16.0417 38.0506L16.042 38.0514ZM22.0169 21.9632C22.0179 22.0251 22.0241 22.0854 22.0307 22.134C21.9934 22.0723 21.9546 22.0146 21.9157 21.9608C21.9494 21.9499 21.9831 21.9387 22.0168 21.9272C22.0167 21.9389 22.0167 21.9506 22.0169 21.9625L22.0169 21.9632ZM23.4457 15.177C23.4456 15.1766 23.4455 15.1762 23.4454 15.1758C23.4454 15.176 23.4455 15.1762 23.4455 15.1765L23.4457 15.177Z" stroke="#2563EB" stroke-width="2.5"/>
</g>
<defs>
<clipPath id="clip0_918_3968">
<rect width="40" height="40" fill="white"/>
</clipPath>
</defs>
</svg>
