<svg width="30" height="31" viewBox="0 0 30 31" fill="none" xmlns="http://www.w3.org/2000/svg">
<path d="M26.1797 13.8597L6.43357 2.8089C6.10456 2.61704 5.7257 2.52791 5.34565 2.55297C4.96561 2.57803 4.60173 2.71612 4.30076 2.94953C3.99338 3.19204 3.77021 3.52522 3.66293 3.90177C3.55565 4.27831 3.5697 4.67908 3.7031 5.04718L6.99607 14.2464C7.02938 14.3381 7.08984 14.4175 7.16939 14.474C7.24893 14.5306 7.34381 14.5615 7.44138 14.5628H15.9023C16.1456 14.559 16.3813 14.6475 16.5618 14.8106C16.7423 14.9738 16.8542 15.1993 16.875 15.4417C16.883 15.5697 16.8647 15.6979 16.8212 15.8185C16.7776 15.9391 16.7099 16.0495 16.622 16.1428C16.5341 16.2362 16.4281 16.3105 16.3103 16.3613C16.1926 16.412 16.0657 16.4381 15.9375 16.4378H7.44138C7.34381 16.4391 7.24893 16.47 7.16939 16.5266C7.08984 16.5831 7.02938 16.6625 6.99607 16.7542L3.7031 25.9534C3.6043 26.2368 3.57453 26.5397 3.61626 26.8369C3.65799 27.1341 3.77003 27.4171 3.94306 27.6623C4.11609 27.9075 4.34513 28.108 4.61116 28.2469C4.87718 28.3859 5.17251 28.4593 5.47263 28.4612C5.792 28.4598 6.10604 28.3793 6.3867 28.2269L26.1797 17.1409C26.4696 16.9763 26.7108 16.7377 26.8785 16.4495C27.0463 16.1613 27.1347 15.8338 27.1347 15.5003C27.1347 15.1668 27.0463 14.8393 26.8785 14.5511C26.7108 14.2629 26.4696 14.0244 26.1797 13.8597Z" fill="#9CA3AF"/>
</svg>
