<svg width="24" height="24" viewBox="0 0 24 24" fill="none" xmlns="http://www.w3.org/2000/svg">
<g clip-path="url(#clip0_921_2997)">
<path fill-rule="evenodd" clip-rule="evenodd" d="M19.6 5.98152L12 2.56152L4.39999 5.98152V11.2202C4.39999 15.7315 7.57158 20.3558 11.9072 21.3893L12 21.4114L12.0927 21.3893C16.4284 20.3558 19.6 15.7315 19.6 11.2202V5.98152ZM6.39999 11.2202V7.27879L12 4.75879L17.6 7.27879V11.2202C17.6 14.8367 15.0938 18.3904 12 19.3467C8.90616 18.3904 6.39999 14.8367 6.39999 11.2202ZM13 10.0002V8.00016H11V10.0002H13ZM13 16.0002V10.4002H11V16.0002H13Z" fill="#2563EB"/>
</g>
<defs>
<clipPath id="clip0_921_2997">
<rect width="24" height="24" fill="white"/>
</clipPath>
</defs>
</svg>
