<svg width="30" height="30" viewBox="0 0 30 30" fill="none" xmlns="http://www.w3.org/2000/svg">
<g clip-path="url(#clip0_666_1406)">
<path d="M15 2.5C21.9037 2.5 27.5 8.09625 27.5 15C27.5 15.9087 27.4037 16.7937 27.2188 17.6475L24.9912 15.4187C25.083 13.2247 24.4499 11.0614 23.1898 9.26296C21.9298 7.46449 20.1127 6.1308 18.0192 5.46778C15.9257 4.80476 13.6722 4.84929 11.6065 5.59449C9.54084 6.33968 7.77789 7.74411 6.58984 9.59096C5.40178 11.4378 4.85468 13.6244 5.033 15.8131C5.21131 18.0018 6.10512 20.071 7.57645 21.7012C9.04778 23.3314 11.0148 24.4319 13.1739 24.833C15.3329 25.234 17.5639 24.9131 19.5225 23.92C19.9996 24.6762 20.6709 25.2904 21.4663 25.6987C19.5165 26.8801 17.2797 27.5032 15 27.5C8.09625 27.5 2.5 21.9037 2.5 15C2.5 8.09625 8.09625 2.5 15 2.5ZM23.75 17.715L25.5175 19.4825C25.8616 19.8265 26.0978 20.2633 26.1973 20.7395C26.2967 21.2158 26.255 21.7107 26.0774 22.1636C25.8997 22.6165 25.5937 23.0077 25.197 23.2893C24.8003 23.5709 24.33 23.7306 23.8438 23.7488C23.3577 23.7671 22.8768 23.6431 22.46 23.392C22.0433 23.141 21.7089 22.7738 21.4977 22.3355C21.2866 21.8972 21.2079 21.4068 21.2714 20.9245C21.3349 20.4421 21.5377 19.9888 21.855 19.62L21.9825 19.4825L23.75 17.715ZM15 18.75C16.8325 18.75 18.4812 19.5387 19.625 20.7962L18.4438 21.8713C17.4563 21.4775 16.2725 21.25 15 21.25C13.7275 21.25 12.5437 21.4788 11.5562 21.87L10.375 20.795C10.9603 20.1499 11.6742 19.6347 12.4708 19.2825C13.2674 18.9302 14.129 18.7488 15 18.75ZM10.625 12.5C11.1223 12.5 11.5992 12.6975 11.9508 13.0492C12.3025 13.4008 12.5 13.8777 12.5 14.375C12.5 14.8723 12.3025 15.3492 11.9508 15.7008C11.5992 16.0525 11.1223 16.25 10.625 16.25C10.1277 16.25 9.65081 16.0525 9.29917 15.7008C8.94754 15.3492 8.75 14.8723 8.75 14.375C8.75 13.8777 8.94754 13.4008 9.29917 13.0492C9.65081 12.6975 10.1277 12.5 10.625 12.5ZM19.375 12.5C19.8723 12.5 20.3492 12.6975 20.7008 13.0492C21.0525 13.4008 21.25 13.8777 21.25 14.375C21.25 14.8723 21.0525 15.3492 20.7008 15.7008C20.3492 16.0525 19.8723 16.25 19.375 16.25C18.8777 16.25 18.4008 16.0525 18.0492 15.7008C17.6975 15.3492 17.5 14.8723 17.5 14.375C17.5 13.8777 17.6975 13.4008 18.0492 13.0492C18.4008 12.6975 18.8777 12.5 19.375 12.5Z" fill="#F97316"/>
</g>
<defs>
<clipPath id="clip0_666_1406">
<rect width="30" height="30" fill="white"/>
</clipPath>
</defs>
</svg>
