<svg width="40" height="40" viewBox="0 0 40 40" fill="none" xmlns="http://www.w3.org/2000/svg">
<path d="M25.3448 3.81907L32.0115 10.4787C32.6127 11.0791 32.6593 12.0244 32.1515 12.6785L32.013 12.8356L25.3463 19.511C24.6958 20.1623 23.6405 20.163 22.9892 19.5125C22.388 18.9122 22.3412 17.9667 22.8492 17.3127L22.9877 17.1555L26.8053 13.3332L9.16584 13.3332C8.31113 13.3332 7.60668 12.6898 7.51039 11.8609L7.49918 11.6666C7.49918 10.8118 8.14258 10.1074 8.97148 10.0111L9.16584 9.99988L26.817 9.99987L22.9892 6.17733C22.388 5.57685 22.3413 4.63148 22.8493 3.9774L22.9878 3.82032C23.5883 3.2192 24.5337 3.17248 25.1878 3.6805L25.3448 3.81907ZM32.4837 28.1388L32.495 28.3332C32.495 29.188 31.8515 29.8923 31.0227 29.9887L30.8283 29.9998H13.1886L17.0117 33.8208C17.6127 34.4213 17.6593 35.3667 17.1513 36.0208L17.0127 36.1778C16.4122 36.779 15.4668 36.8257 14.8128 36.3175L14.6557 36.179L7.98901 29.5185C7.38793 28.918 7.34126 27.9727 7.84934 27.3187L7.98791 27.1615L14.6546 20.4887C15.3051 19.8375 16.3604 19.837 17.0117 20.4875C17.6127 21.088 17.6593 22.0333 17.1513 22.6875L17.0127 22.8445L13.1953 26.6665H30.8283C31.683 26.6665 32.3875 27.31 32.4837 28.1388Z" fill="#2563EB"/>
</svg>
