<svg width="40" height="40" viewBox="0 0 40 40" fill="none" xmlns="http://www.w3.org/2000/svg">
<g clip-path="url(#clip0_914_3587)">
<path fill-rule="evenodd" clip-rule="evenodd" d="M8.33333 6.7915C7.0404 6.7915 5.80042 7.30512 4.88618 8.21936C3.97194 9.1336 3.45833 10.3736 3.45833 11.6665V16.6665C3.45833 17.5179 4.14856 18.2082 4.99999 18.2082C5.47517 18.2082 5.93089 18.3969 6.26689 18.7329C6.6029 19.0689 6.79166 19.5247 6.79166 19.9998C6.79166 20.475 6.6029 20.9307 6.26689 21.2667C5.93089 21.6027 5.47517 21.7915 4.99999 21.7915C4.14856 21.7915 3.45833 22.4817 3.45833 23.3332V28.3332C3.45833 29.6261 3.97194 30.8661 4.88618 31.7803C5.80042 32.6946 7.0404 33.2082 8.33333 33.2082H31.6667C32.9596 33.2082 34.1996 32.6946 35.1138 31.7803C36.028 30.8661 36.5417 29.6261 36.5417 28.3332V23.3332C36.5417 22.4817 35.8514 21.7915 35 21.7915C34.5248 21.7915 34.0691 21.6027 33.7331 21.2667C33.3971 20.9307 33.2083 20.475 33.2083 19.9998C33.2083 19.5247 33.3971 19.0689 33.7331 18.7329C34.0691 18.3969 34.5248 18.2082 35 18.2082C35.8514 18.2082 36.5417 17.5179 36.5417 16.6665V11.6665C36.5417 10.3736 36.028 9.1336 35.1138 8.21936C34.1996 7.30512 32.9596 6.7915 31.6667 6.7915H25H8.33333ZM7.06643 10.3996C7.40243 10.0636 7.85815 9.87484 8.33333 9.87484H23.4583V11.6665C23.4583 12.5179 24.1486 13.2082 25 13.2082C25.8514 13.2082 26.5417 12.5179 26.5417 11.6665V9.87484H31.6667C32.1418 9.87484 32.5976 10.0636 32.9336 10.3996C33.2696 10.7356 33.4583 11.1913 33.4583 11.6665V15.375C32.747 15.6122 32.0931 16.0125 31.5528 16.5527C30.6386 17.4669 30.125 18.7069 30.125 19.9998C30.125 21.2928 30.6386 22.5327 31.5528 23.447C32.0931 23.9872 32.747 24.3875 33.4583 24.6247V28.3332C33.4583 28.8083 33.2696 29.2641 32.9336 29.6001C32.5976 29.9361 32.1418 30.1248 31.6667 30.1248H26.3333V28.3333C26.3333 27.597 25.7364 27 25 27C24.2636 27 23.6667 27.597 23.6667 28.3333V30.1248H8.33333C7.85815 30.1248 7.40243 29.9361 7.06643 29.6001C6.73043 29.2641 6.54166 28.8083 6.54166 28.3332V24.6247C7.25301 24.3875 7.90694 23.9872 8.44714 23.447C9.36138 22.5327 9.87499 21.2928 9.87499 19.9998C9.87499 18.7069 9.36138 17.4669 8.44714 16.5527C7.90694 16.0125 7.25301 15.6122 6.54166 15.375V11.6665C6.54166 11.1913 6.73043 10.7356 7.06643 10.3996ZM25 16.7915C24.1486 16.7915 23.4583 17.4817 23.4583 18.3332V21.6665C23.4583 22.5179 24.1486 23.2082 25 23.2082C25.8514 23.2082 26.5417 22.5179 26.5417 21.6665V18.3332C26.5417 17.4817 25.8514 16.7915 25 16.7915Z" fill="#2563EB"/>
</g>
<defs>
<clipPath id="clip0_914_3587">
<rect width="40" height="40" fill="white"/>
</clipPath>
</defs>
</svg>
