<svg width="40" height="40" viewBox="0 0 40 40" fill="none" xmlns="http://www.w3.org/2000/svg">
<g clip-path="url(#clip0_918_3607)">
<path d="M15 16.6668V30.0002L26.6667 23.3335L15 16.6668ZM35 10.0002H22.3667L27.85 4.51683L26.6667 3.3335L20 10.0002H19.95L13.2833 3.3335L12.1333 4.51683L17.6 10.0002H4.99999C3.16666 10.0002 1.66666 11.5002 1.66666 13.3335V33.3335C1.66666 35.1668 3.16666 36.6668 4.99999 36.6668H35C36.8333 36.6668 38.3333 35.1668 38.3333 33.3335V13.3335C38.3333 11.5002 36.8333 10.0002 35 10.0002ZM35 33.3335H4.99999V13.3335H35V33.3335Z" fill="#2563EB"/>
</g>
<defs>
<clipPath id="clip0_918_3607">
<rect width="40" height="40" fill="white"/>
</clipPath>
</defs>
</svg>
