<svg width="30" height="30" viewBox="0 0 30 30" fill="none" xmlns="http://www.w3.org/2000/svg">
<path d="M20.3115 17.8303C18.8528 16.5336 16.969 15.8174 15.0173 15.8174C13.0656 15.8174 11.1818 16.5336 9.72305 17.8303C9.59979 17.9369 9.49895 18.067 9.42639 18.213C9.35382 18.3589 9.31098 18.5179 9.30035 18.6805C9.28972 18.8432 9.31151 19.0063 9.36446 19.1605C9.4174 19.3146 9.50045 19.4567 9.60878 19.5785C9.7171 19.7003 9.84855 19.7994 9.99548 19.8699C10.1424 19.9405 10.3019 19.9812 10.4647 19.9896C10.6275 19.998 10.7903 19.974 10.9437 19.919C11.0971 19.8639 11.2381 19.7789 11.3584 19.669C12.3666 18.7729 13.6685 18.278 15.0173 18.278C16.3661 18.278 17.668 18.7729 18.6762 19.669C18.9202 19.8858 19.2403 19.9969 19.5661 19.9777C19.892 19.9585 20.1969 19.8107 20.4138 19.5667C20.6306 19.3227 20.7417 19.0026 20.7225 18.6767C20.7033 18.3509 20.5555 18.046 20.3115 17.8291V17.8303Z" fill="#2563EB"/>
<path d="M15.0164 10.7637C11.7127 10.7591 8.53172 12.0148 6.12188 14.2746C5.99987 14.3839 5.90091 14.5165 5.8308 14.6645C5.76069 14.8126 5.72085 14.9731 5.71361 15.1368C5.70636 15.3004 5.73187 15.4638 5.78863 15.6175C5.84538 15.7712 5.93225 15.9119 6.04413 16.0316C6.15601 16.1512 6.29065 16.2473 6.44016 16.3142C6.58968 16.3812 6.75104 16.4176 6.91481 16.4213C7.07857 16.425 7.24143 16.396 7.39383 16.336C7.54624 16.276 7.68513 16.1861 7.80235 16.0717C9.75907 14.2423 12.3377 13.2246 15.0164 13.2246C17.6951 13.2246 20.2738 14.2423 22.2305 16.0717C22.3477 16.1861 22.4866 16.276 22.639 16.336C22.7914 16.396 22.9543 16.425 23.118 16.4213C23.2818 16.4176 23.4431 16.3812 23.5927 16.3142C23.7422 16.2473 23.8768 16.1512 23.9887 16.0316C24.1006 15.9119 24.1874 15.7712 24.2442 15.6175C24.301 15.4638 24.3265 15.3004 24.3192 15.1368C24.312 14.9731 24.2721 14.8126 24.202 14.6645C24.1319 14.5165 24.033 14.3839 23.9109 14.2746C21.5011 12.0148 18.3201 10.7591 15.0164 10.7637Z" fill="#2563EB"/>
<path d="M27.0703 10.3043C23.7529 7.34435 19.4624 5.7085 15.0164 5.7085C10.5704 5.7085 6.27991 7.34435 2.9625 10.3043C2.83782 10.4108 2.73568 10.5411 2.66209 10.6877C2.58851 10.8342 2.54495 10.994 2.53398 11.1576C2.52301 11.3212 2.54485 11.4853 2.59821 11.6404C2.65158 11.7954 2.7354 11.9382 2.84475 12.0604C2.95409 12.1826 3.08675 12.2817 3.23494 12.3519C3.38313 12.4221 3.54385 12.462 3.70767 12.4692C3.87148 12.4764 4.03509 12.4508 4.18886 12.3938C4.34263 12.3369 4.48348 12.2498 4.60312 12.1377C7.46931 9.58146 11.1756 8.16882 15.0161 8.16882C18.8566 8.16882 22.5629 9.58146 25.4291 12.1377C25.6724 12.3552 25.9921 12.4673 26.318 12.4491C26.6438 12.4309 26.9491 12.284 27.1667 12.0407C27.3843 11.7974 27.4963 11.4777 27.4781 11.1518C27.4599 10.826 27.313 10.5207 27.0697 10.3031L27.0703 10.3043Z" fill="#2563EB"/>
<path d="M15.0164 24.9263C16.052 24.9263 16.8914 24.0868 16.8914 23.0513C16.8914 22.0157 16.052 21.1763 15.0164 21.1763C13.9809 21.1763 13.1414 22.0157 13.1414 23.0513C13.1414 24.0868 13.9809 24.9263 15.0164 24.9263Z" fill="#2563EB"/>
</svg>
