<svg width="177" height="177" viewBox="0 0 177 177" fill="none" xmlns="http://www.w3.org/2000/svg">
<rect x="0.5" y="0.5" width="176" height="176" rx="88" stroke="none"/>
<rect x="1" y="1" width="175" height="175" rx="87.5" fill="#F3F4F6"/>
<mask id="mask0_617_841" style="mask-type:luminance" maskUnits="userSpaceOnUse" x="1" y="1" width="175" height="175">
<rect x="1" y="1" width="175" height="175" rx="87.5" fill="white"/>
</mask>
<g mask="url(#mask0_617_841)">
<path fill-rule="evenodd" clip-rule="evenodd" d="M152.163 155.698C147.004 148.235 139.399 142.811 130.664 140.364L110.375 134.681V120.098C118.952 113.655 124.584 103.516 124.93 92.0473C126.129 92.5757 127.452 92.8752 128.847 92.8752C134.217 92.8752 138.57 88.5225 138.57 83.153C138.57 77.7834 134.217 73.4307 128.847 73.4307C127.463 73.4307 126.15 73.7239 124.959 74.245V71.4863C124.959 51.3506 108.635 35.028 88.5002 35.028H88.4997C68.3645 35.028 52.0419 51.3506 52.0419 71.4863V74.245C50.8499 73.7239 49.5364 73.4307 48.153 73.4307C42.7834 73.4307 38.4307 77.7834 38.4307 83.153C38.4307 88.5225 42.7834 92.8752 48.153 92.8752C49.5476 92.8752 50.8708 92.5762 52.07 92.0473C52.4157 103.516 58.0482 113.655 66.6247 120.098V134.681L46.3364 140.364C37.601 142.811 29.9957 148.235 24.8371 155.698L10.7224 176.117V190.584H166.278V176.117L152.163 155.698Z" fill="#E9ADA1"/>
<path fill-rule="evenodd" clip-rule="evenodd" d="M88.4996 127.389C84.0041 127.389 79.701 126.57 75.7246 125.082C81.38 128.695 88.0961 130.792 95.3052 130.792C100.682 130.792 105.78 129.619 110.375 127.53V120.098C104.281 124.675 96.7076 127.389 88.4996 127.389Z" fill="#DB8B79"/>
<path d="M53.31 84.5717C53.4339 84.1201 53.5005 83.6442 53.5005 83.1533C53.5005 80.2001 51.1064 77.806 48.1533 77.806C47.4149 77.806 46.7115 77.9558 46.0718 78.226" stroke="#00004D" stroke-width="0.972222" stroke-linecap="round" stroke-linejoin="round"/>
<path d="M123.69 84.5717C123.566 84.1201 123.5 83.6442 123.5 83.1533C123.5 80.2001 125.894 77.806 128.847 77.806C129.585 77.806 130.289 77.9558 130.929 78.226" stroke="#00004D" stroke-width="0.972222" stroke-linecap="round" stroke-linejoin="round"/>
<path fill-rule="evenodd" clip-rule="evenodd" d="M98.222 105.032C98.222 110.402 93.8694 114.754 88.4998 114.754C83.1302 114.754 78.7776 110.402 78.7776 105.032H98.222Z" fill="white"/>
<path fill-rule="evenodd" clip-rule="evenodd" d="M108.431 84.6112C108.431 86.7588 106.689 88.5001 104.542 88.5001C102.394 88.5001 100.653 86.7588 100.653 84.6112C100.653 82.4635 102.394 80.7223 104.542 80.7223C106.689 80.7223 108.431 82.4635 108.431 84.6112Z" fill="#00004D"/>
<path fill-rule="evenodd" clip-rule="evenodd" d="M76.3471 84.6112C76.3471 86.7588 74.6059 88.5001 72.4582 88.5001C70.3106 88.5001 68.5693 86.7588 68.5693 84.6112C68.5693 82.4635 70.3106 80.7223 72.4582 80.7223C74.6059 80.7223 76.3471 82.4635 76.3471 84.6112Z" fill="#00004D"/>
<path d="M88.4996 80.7223L93.3607 97.2501L86.5552 98.2223" stroke="#00004D" stroke-width="0.972222" stroke-linecap="round" stroke-linejoin="round"/>
<path fill-rule="evenodd" clip-rule="evenodd" d="M77.0087 56.6309C71.9498 65.2744 64.2916 72.202 55.1138 76.3733C53.4916 74.7079 51.2774 73.6307 48.8114 73.4649L50.0884 65.3804V65.3799C50.9021 60.2266 52.7294 55.4112 55.3568 51.1398C57.7835 47.1964 60.8975 43.7256 64.5273 40.8809C65.9463 39.7686 67.4421 38.7498 69.0093 37.8393C73.4096 35.2852 78.3548 33.5673 83.6291 32.9052C85.2245 32.705 86.8496 32.597 88.4999 32.597C95.6044 32.597 102.259 34.5118 107.991 37.8393C113.568 41.0773 118.268 45.6545 121.643 51.1398C124.27 55.4112 126.098 60.2266 126.911 65.3804L128.187 73.4552C125.609 73.6297 123.312 74.8124 121.673 76.6076C104.398 75.2689 88.8115 67.9145 77.0087 56.6309ZM66.625 120.085C58.0563 113.641 52.4155 103.512 52.0699 92.0469C50.8707 92.5757 49.5475 92.8747 48.1528 92.8747C47.3371 92.8747 46.5501 92.7639 45.7932 92.5743L39.8889 129.954H66.625V120.085ZM128.847 92.8749C127.453 92.8749 126.129 92.576 124.93 92.0471C124.584 103.513 118.944 113.641 110.375 120.085V129.954H137.111L131.207 92.5745C130.45 92.7636 129.663 92.8749 128.847 92.8749Z" fill="#00004D"/>
<path fill-rule="evenodd" clip-rule="evenodd" d="M166.278 176.117L152.163 155.698C147.005 148.236 139.399 142.811 130.664 140.364L110.375 134.681C110.375 146.762 100.582 156.556 88.5002 156.556C76.4189 156.556 66.6252 146.762 66.6252 134.681L46.3364 140.364C37.601 142.811 29.9957 148.236 24.8371 155.698L10.7224 176.117V190.583H166.278V176.117Z" fill="#1D4ED8"/>
</g>
</svg>
