<svg width="175" height="175" viewBox="0 0 175 175" fill="none" xmlns="http://www.w3.org/2000/svg">
<rect width="175" height="175" rx="87.5" fill="#F3F4F6"/>
<mask id="mask0_617_855" style="mask-type:luminance" maskUnits="userSpaceOnUse" x="0" y="0" width="175" height="175">
<rect width="175" height="175" rx="87.5" fill="white"/>
</mask>
<g mask="url(#mask0_617_855)">
<path fill-rule="evenodd" clip-rule="evenodd" d="M151.163 154.698C146.004 147.235 138.399 141.811 129.664 139.364L109.375 133.681V119.098C117.952 112.655 123.584 102.516 123.93 91.0473C125.129 91.5757 126.452 91.8752 127.847 91.8752C133.217 91.8752 137.57 87.5225 137.57 82.153C137.57 76.7834 133.217 72.4307 127.847 72.4307C126.463 72.4307 125.15 72.7239 123.959 73.245V70.4863C123.959 50.3506 107.635 34.028 87.5002 34.028H87.4997C67.3645 34.028 51.0419 50.3506 51.0419 70.4863V73.245C49.8499 72.7239 48.5364 72.4307 47.153 72.4307C41.7834 72.4307 37.4307 76.7834 37.4307 82.153C37.4307 87.5225 41.7834 91.8752 47.153 91.8752C48.5476 91.8752 49.8708 91.5762 51.07 91.0473C51.4157 102.516 57.0482 112.655 65.6247 119.098V133.681L45.3364 139.364C36.601 141.811 28.9957 147.235 23.8371 154.698L9.72241 175.117V189.584H165.278V175.117L151.163 154.698Z" fill="#E9ADA1"/>
<path fill-rule="evenodd" clip-rule="evenodd" d="M87.4996 126.389C83.0041 126.389 78.701 125.57 74.7246 124.082C80.38 127.695 87.0961 129.792 94.3052 129.792C99.6816 129.792 104.78 128.619 109.375 126.53V119.098C103.281 123.675 95.7076 126.389 87.4996 126.389Z" fill="#DB8B79"/>
<path d="M52.31 83.5717C52.4339 83.1201 52.5005 82.6442 52.5005 82.1533C52.5005 79.2001 50.1064 76.806 47.1533 76.806C46.4149 76.806 45.7115 76.9558 45.0718 77.226" stroke="#00004D" stroke-width="0.972222" stroke-linecap="round" stroke-linejoin="round"/>
<path d="M122.69 83.5717C122.566 83.1201 122.5 82.6442 122.5 82.1533C122.5 79.2001 124.894 76.806 127.847 76.806C128.585 76.806 129.289 76.9558 129.929 77.226" stroke="#00004D" stroke-width="0.972222" stroke-linecap="round" stroke-linejoin="round"/>
<path fill-rule="evenodd" clip-rule="evenodd" d="M97.222 104.032C97.222 109.402 92.8694 113.754 87.4998 113.754C82.1302 113.754 77.7776 109.402 77.7776 104.032H97.222Z" fill="white"/>
<path fill-rule="evenodd" clip-rule="evenodd" d="M107.431 83.6112C107.431 85.7588 105.689 87.5001 103.542 87.5001C101.394 87.5001 99.6528 85.7588 99.6528 83.6112C99.6528 81.4635 101.394 79.7223 103.542 79.7223C105.689 79.7223 107.431 81.4635 107.431 83.6112Z" fill="#00004D"/>
<path fill-rule="evenodd" clip-rule="evenodd" d="M75.3471 83.6112C75.3471 85.7588 73.6059 87.5001 71.4582 87.5001C69.3106 87.5001 67.5693 85.7588 67.5693 83.6112C67.5693 81.4635 69.3106 79.7223 71.4582 79.7223C73.6059 79.7223 75.3471 81.4635 75.3471 83.6112Z" fill="#00004D"/>
<path d="M87.4996 79.7223L92.3607 96.2501L85.5552 97.2223" stroke="#00004D" stroke-width="0.972222" stroke-linecap="round" stroke-linejoin="round"/>
<path fill-rule="evenodd" clip-rule="evenodd" d="M106.798 33.9498C106.891 33.1779 106.945 32.3943 106.945 31.597C106.945 20.8584 98.2393 12.1526 87.5001 12.1526C76.7609 12.1526 68.0557 20.8584 68.0557 31.597C68.0557 32.3943 68.1091 33.1779 68.2025 33.9498C55.1071 40.8813 46.1807 54.6382 46.1807 70.4859C46.1807 71.1543 46.2025 71.8169 46.2361 72.477C46.5384 72.4484 46.8432 72.4304 47.1529 72.4304C49.8839 72.4304 52.348 73.5601 54.114 75.3733C63.2913 71.202 70.9495 64.2744 76.0089 55.6309C87.8112 66.9145 103.398 74.2684 120.673 75.6076C122.451 73.6597 125.002 72.4304 127.847 72.4304C128.156 72.4304 128.461 72.4484 128.763 72.477C128.797 71.8169 128.82 71.1543 128.82 70.4859C128.82 54.6382 119.893 40.8813 106.798 33.9498Z" fill="#00004D"/>
<path fill-rule="evenodd" clip-rule="evenodd" d="M165.278 175.117L151.163 154.698C146.005 147.236 138.399 141.811 129.664 139.364L109.375 133.681C109.375 145.762 99.5815 155.556 87.5002 155.556C75.4189 155.556 65.6252 145.762 65.6252 133.681L45.3364 139.364C36.601 141.811 28.9957 147.236 23.8371 154.698L9.72241 175.117V189.583H165.278V175.117Z" fill="#1D4ED8"/>
</g>
</svg>
