<svg width="175" height="175" viewBox="0 0 175 175" fill="none" xmlns="http://www.w3.org/2000/svg">
<rect width="175" height="175" rx="87.5" fill="#F3F4F6"/>
<mask id="mask0_617_854" style="mask-type:luminance" maskUnits="userSpaceOnUse" x="0" y="0" width="175" height="175">
<rect width="175" height="175" rx="87.5" fill="white"/>
</mask>
<g mask="url(#mask0_617_854)">
<path fill-rule="evenodd" clip-rule="evenodd" d="M151.163 154.698C146.004 147.235 138.399 141.811 129.664 139.364L109.375 133.681V119.098C117.952 112.655 123.584 102.516 123.93 91.0473C125.129 91.5757 126.452 91.8752 127.847 91.8752C133.217 91.8752 137.57 87.5225 137.57 82.153C137.57 76.7834 133.217 72.4307 127.847 72.4307C126.463 72.4307 125.15 72.7239 123.959 73.245V70.4863C123.959 50.3506 107.635 34.028 87.5002 34.028H87.4997C67.3645 34.028 51.0419 50.3506 51.0419 70.4863V73.245C49.8499 72.7239 48.5364 72.4307 47.153 72.4307C41.7834 72.4307 37.4307 76.7834 37.4307 82.153C37.4307 87.5225 41.7834 91.8752 47.153 91.8752C48.5476 91.8752 49.8708 91.5762 51.07 91.0473C51.4157 102.516 57.0482 112.655 65.6247 119.098V133.681L45.3364 139.364C36.601 141.811 28.9957 147.235 23.8371 154.698L9.72241 175.117V189.584H165.278V175.117L151.163 154.698Z" fill="#E9ADA1"/>
<path fill-rule="evenodd" clip-rule="evenodd" d="M87.4996 126.389C83.0041 126.389 78.701 125.57 74.7246 124.082C80.38 127.695 87.0961 129.792 94.3052 129.792C99.6816 129.792 104.78 128.619 109.375 126.53V119.098C103.281 123.675 95.7076 126.389 87.4996 126.389Z" fill="#DB8B79"/>
<path d="M52.31 83.5717C52.4339 83.1201 52.5005 82.6442 52.5005 82.1533C52.5005 79.2001 50.1064 76.806 47.1533 76.806C46.4149 76.806 45.7115 76.9558 45.0718 77.226" stroke="#00004D" stroke-width="0.972222" stroke-linecap="round" stroke-linejoin="round"/>
<path d="M122.69 83.5717C122.566 83.1201 122.5 82.6442 122.5 82.1533C122.5 79.2001 124.894 76.806 127.847 76.806C128.585 76.806 129.289 76.9558 129.929 77.226" stroke="#00004D" stroke-width="0.972222" stroke-linecap="round" stroke-linejoin="round"/>
<path fill-rule="evenodd" clip-rule="evenodd" d="M97.222 104.032C97.222 109.402 92.8694 113.754 87.4998 113.754C82.1302 113.754 77.7776 109.402 77.7776 104.032H97.222Z" fill="white"/>
<path fill-rule="evenodd" clip-rule="evenodd" d="M107.431 83.6112C107.431 85.7588 105.689 87.5001 103.542 87.5001C101.394 87.5001 99.6528 85.7588 99.6528 83.6112C99.6528 81.4635 101.394 79.7223 103.542 79.7223C105.689 79.7223 107.431 81.4635 107.431 83.6112Z" fill="#00004D"/>
<path fill-rule="evenodd" clip-rule="evenodd" d="M75.3471 83.6112C75.3471 85.7588 73.6059 87.5001 71.4582 87.5001C69.3106 87.5001 67.5693 85.7588 67.5693 83.6112C67.5693 81.4635 69.3106 79.7223 71.4582 79.7223C73.6059 79.7223 75.3471 81.4635 75.3471 83.6112Z" fill="#00004D"/>
<path d="M87.4996 79.7223L92.3607 96.2501L85.5552 97.2223" stroke="#00004D" stroke-width="0.972222" stroke-linecap="round" stroke-linejoin="round"/>
<path fill-rule="evenodd" clip-rule="evenodd" d="M133.367 34.0282C133.367 25.9738 126.838 19.4448 118.784 19.4448C110.73 19.4448 104.201 25.9738 104.201 34.0282C104.201 34.487 104.224 34.9406 104.266 35.3888C99.1892 32.9592 93.5042 31.5961 87.5002 31.5961C81.2318 31.5961 75.3153 33.088 70.0717 35.7223C70.1363 35.1661 70.1728 34.6018 70.1728 34.0282C70.1728 25.9738 63.6433 19.4448 55.5894 19.4448C47.5355 19.4448 41.0061 25.9738 41.0061 34.0282C41.0061 42.0018 47.4067 48.4768 55.3503 48.6052C51.0992 54.8395 48.6113 62.3709 48.6113 70.485V72.5505C50.9335 72.901 52.9839 74.0672 54.4621 75.7554L54.555 75.7326L56.4994 66.0104H96.309V52.0031L101.088 66.0104H118.5L120.445 75.7326L120.534 75.7598C122.013 74.0691 124.065 72.9015 126.389 72.5505V70.485C126.389 62.3616 123.895 54.8225 119.636 48.5843C127.293 48.1434 133.367 41.7957 133.367 34.0282Z" fill="#00004D"/>
<path fill-rule="evenodd" clip-rule="evenodd" d="M165.278 175.117L151.163 154.698C146.005 147.236 138.399 141.811 129.664 139.364L109.375 133.681C109.375 145.762 99.5815 155.556 87.5002 155.556C75.4189 155.556 65.6252 145.762 65.6252 133.681L45.3364 139.364C36.601 141.811 28.9957 147.236 23.8371 154.698L9.72241 175.117V189.583H165.278V175.117Z" fill="#1D4ED8"/>
<path fill-rule="evenodd" clip-rule="evenodd" d="M103.542 92.5759C98.7168 92.5759 94.7919 88.6511 94.7919 83.8259C94.7919 77.787 100.911 77.1346 103.542 77.1346C106.173 77.1346 112.292 77.787 112.292 83.8259C112.292 88.6511 108.367 92.5759 103.542 92.5759ZM71.4586 92.5759C66.6334 92.5759 62.7086 88.6511 62.7086 83.8259C62.7086 77.787 68.8277 77.1346 71.4586 77.1346C74.0894 77.1346 80.2086 77.787 80.2086 83.8259C80.2086 88.6511 76.2837 92.5759 71.4586 92.5759ZM117.153 78.4111H113.315L110.692 76.3709C109.839 75.7074 108.789 75.3472 107.707 75.3472H99.2369C98.0843 75.3472 96.9697 75.756 96.0913 76.5022L92.3614 79.6672L87.9514 77.3577C87.6689 77.2104 87.3316 77.2104 87.0491 77.3577L82.6391 79.6672L78.9092 76.5022C78.0308 75.756 76.9161 75.3472 75.7636 75.3472H67.2931C66.212 75.3472 65.162 75.7074 64.3089 76.3709L61.6853 78.4111H57.8475C57.3108 78.4111 56.8752 78.8467 56.8752 79.3833V80.2758C56.8752 80.813 57.3108 81.2481 57.8475 81.2481H58.8197C59.6252 81.2481 60.278 81.9009 60.278 82.7064V83.1808C60.278 89.092 64.7818 94.149 70.6789 94.551C75.8185 94.9015 80.2898 91.7558 81.9503 87.2603L81.9508 87.2613L83.6342 83.3257C84.2963 81.7779 85.8168 80.7746 87.5002 80.7746C89.1836 80.7746 90.7042 81.7779 91.3663 83.3257L93.0497 87.2613L93.0502 87.2603C94.7107 91.7563 99.1825 94.9015 104.322 94.551C110.219 94.1485 114.722 89.092 114.722 83.1808V82.7064C114.722 81.9009 115.375 81.2481 116.181 81.2481H117.153C117.69 81.2481 118.125 80.813 118.125 80.2758V79.3833C118.125 78.8467 117.69 78.4111 117.153 78.4111Z" fill="#000066"/>
</g>
</svg>
