<svg width="177" height="177" viewBox="0 0 177 177" fill="none" xmlns="http://www.w3.org/2000/svg">
<rect x="0.5" y="0.5" width="176" height="176" rx="88" stroke="none"/>
<path fill-rule="evenodd" clip-rule="evenodd" d="M88.5 176C136.825 176 176 136.825 176 88.5C176 40.1751 136.825 1 88.5 1C40.1751 1 1 40.1751 1 88.5C1 136.825 40.1751 176 88.5 176Z" fill="#F3F4F6"/>
<mask id="mask0_620_1185" style="mask-type:luminance" maskUnits="userSpaceOnUse" x="1" y="1" width="175" height="175">
<path fill-rule="evenodd" clip-rule="evenodd" d="M88.5 176C136.825 176 176 136.825 176 88.5C176 40.1751 136.825 1 88.5 1C40.1751 1 1 40.1751 1 88.5C1 136.825 40.1751 176 88.5 176Z" fill="white"/>
</mask>
<g mask="url(#mask0_620_1185)">
<path fill-rule="evenodd" clip-rule="evenodd" d="M152.163 155.698C147.004 148.235 139.399 142.811 130.664 140.364L110.375 134.681V120.098C118.952 113.655 124.584 103.516 124.93 92.0473C126.129 92.5757 127.452 92.8752 128.847 92.8752C134.217 92.8752 138.57 88.5225 138.57 83.153C138.57 77.7834 134.217 73.4307 128.847 73.4307C127.463 73.4307 126.15 73.7239 124.959 74.245V71.4863C124.959 51.3506 108.635 35.028 88.5002 35.028H88.4997C68.3645 35.028 52.0419 51.3506 52.0419 71.4863V74.245C50.8499 73.7239 49.5364 73.4307 48.153 73.4307C42.7834 73.4307 38.4307 77.7834 38.4307 83.153C38.4307 88.5225 42.7834 92.8752 48.153 92.8752C49.5476 92.8752 50.8708 92.5762 52.07 92.0473C52.4157 103.516 58.0482 113.655 66.6247 120.098V134.681L46.3364 140.364C37.601 142.811 29.9957 148.235 24.8371 155.698L10.7224 176.117V190.584H166.278V176.117L152.163 155.698Z" fill="#E9ADA1"/>
<path fill-rule="evenodd" clip-rule="evenodd" d="M88.4999 127.389C84.0043 127.389 79.7012 126.57 75.7249 125.082C81.3803 128.695 88.0964 130.792 95.3054 130.792C100.682 130.792 105.781 129.619 110.375 127.53V120.098C104.281 124.675 96.7078 127.389 88.4999 127.389Z" fill="#DB8B79"/>
<path d="M53.31 84.5716C53.4339 84.12 53.5005 83.6441 53.5005 83.1531C53.5005 80.2 51.1064 77.8059 48.1533 77.8059C47.4149 77.8059 46.7115 77.9556 46.0718 78.2259" stroke="#00004D" stroke-width="0.0962861" stroke-linecap="round" stroke-linejoin="round"/>
<path d="M123.691 84.5716C123.567 84.12 123.5 83.6441 123.5 83.1531C123.5 80.2 125.895 77.8059 128.848 77.8059C129.586 77.8059 130.289 77.9556 130.929 78.2259" stroke="#00004D" stroke-width="0.0962861" stroke-linecap="round" stroke-linejoin="round"/>
<path fill-rule="evenodd" clip-rule="evenodd" d="M98.222 105.032C98.222 110.402 93.8694 114.754 88.4998 114.754C83.1302 114.754 78.7776 110.402 78.7776 105.032H98.222Z" fill="white"/>
<path fill-rule="evenodd" clip-rule="evenodd" d="M108.431 84.6111C108.431 86.7587 106.69 88.4999 104.542 88.4999C102.394 88.4999 100.653 86.7587 100.653 84.6111C100.653 82.4634 102.394 80.7222 104.542 80.7222C106.69 80.7222 108.431 82.4634 108.431 84.6111" fill="#00004D"/>
<path fill-rule="evenodd" clip-rule="evenodd" d="M76.3471 84.6111C76.3471 86.7587 74.6059 88.4999 72.4582 88.4999C70.3106 88.4999 68.5693 86.7587 68.5693 84.6111C68.5693 82.4634 70.3106 80.7222 72.4582 80.7222C74.6059 80.7222 76.3471 82.4634 76.3471 84.6111" fill="#00004D"/>
<path d="M88.4999 80.7222L93.361 97.2499L86.5554 98.2222" stroke="#00004D" stroke-width="0.0962861" stroke-linecap="round" stroke-linejoin="round"/>
<path fill-rule="evenodd" clip-rule="evenodd" d="M127.389 73.5515V71.4861C127.389 64.0262 125.284 57.0593 121.643 51.1399C118.268 45.6541 113.567 41.0769 107.991 37.8394C102.259 34.5115 95.6045 32.5972 88.5 32.5972C81.395 32.5972 74.7411 34.5115 69.0093 37.8394C63.4327 41.0769 58.732 45.6541 55.3569 51.1399C51.7155 57.0593 49.6111 64.0262 49.6111 71.4861V73.5515C51.6391 73.8578 53.4606 74.7838 54.8747 76.1391C59.3537 71.6436 62.9607 66.2798 65.4146 60.3167C72.2823 64.0301 80.1447 66.1388 88.5 66.1388C96.8553 66.1388 104.718 64.0301 111.585 60.3167C114.039 66.2798 117.647 71.6436 122.125 76.1391C123.539 74.7838 125.361 73.8578 127.389 73.5515" fill="#00004D"/>
<path fill-rule="evenodd" clip-rule="evenodd" d="M166.278 176.117L152.163 155.698C147.004 148.236 139.399 142.811 130.663 140.364L110.375 134.681C110.375 146.762 100.581 156.556 88.4999 156.556V156.556C76.4186 156.556 66.6249 146.762 66.6249 134.681L46.3361 140.364C37.6007 142.811 29.9955 148.236 24.8369 155.698L10.7222 176.117V190.583H166.278V176.117Z" fill="#1D4ED8"/>
</g>
</svg>
