<svg width="175" height="175" viewBox="0 0 175 175" fill="none" xmlns="http://www.w3.org/2000/svg">
<path fill-rule="evenodd" clip-rule="evenodd" d="M87.5 175C135.825 175 175 135.825 175 87.5C175 39.1751 135.825 0 87.5 0C39.1751 0 0 39.1751 0 87.5C0 135.825 39.1751 175 87.5 175Z" fill="#F3F4F6"/>
<mask id="mask0_620_1186" style="mask-type:luminance" maskUnits="userSpaceOnUse" x="0" y="0" width="175" height="175">
<path fill-rule="evenodd" clip-rule="evenodd" d="M87.5 175C135.825 175 175 135.825 175 87.5C175 39.1751 135.825 0 87.5 0C39.1751 0 0 39.1751 0 87.5C0 135.825 39.1751 175 87.5 175Z" fill="white"/>
</mask>
<g mask="url(#mask0_620_1186)">
<path fill-rule="evenodd" clip-rule="evenodd" d="M151.163 154.698C146.004 147.235 138.399 141.811 129.664 139.364L109.375 133.681V119.098C117.952 112.655 123.584 102.516 123.93 91.0473C125.129 91.5757 126.452 91.8752 127.847 91.8752C133.217 91.8752 137.57 87.5225 137.57 82.153C137.57 76.7834 133.217 72.4307 127.847 72.4307C126.463 72.4307 125.15 72.7239 123.959 73.245V70.4863C123.959 50.3506 107.635 34.028 87.5002 34.028H87.4997C67.3645 34.028 51.0419 50.3506 51.0419 70.4863V73.245C49.8499 72.7239 48.5364 72.4307 47.153 72.4307C41.7834 72.4307 37.4307 76.7834 37.4307 82.153C37.4307 87.5225 41.7834 91.8752 47.153 91.8752C48.5476 91.8752 49.8708 91.5762 51.07 91.0473C51.4157 102.516 57.0482 112.655 65.6247 119.098V133.681L45.3364 139.364C36.601 141.811 28.9957 147.235 23.8371 154.698L9.72241 175.117V189.584H165.278V175.117L151.163 154.698Z" fill="#E9ADA1"/>
<path fill-rule="evenodd" clip-rule="evenodd" d="M87.4999 126.389C83.0043 126.389 78.7012 125.57 74.7249 124.082C80.3803 127.695 87.0964 129.792 94.3054 129.792C99.6818 129.792 104.781 128.619 109.375 126.53V119.098C103.281 123.675 95.7078 126.389 87.4999 126.389Z" fill="#DB8B79"/>
<path d="M52.31 83.5716C52.4339 83.12 52.5005 82.6441 52.5005 82.1531C52.5005 79.2 50.1064 76.8059 47.1533 76.8059C46.4149 76.8059 45.7115 76.9556 45.0718 77.2259" stroke="#00004D" stroke-width="0.0962861" stroke-linecap="round" stroke-linejoin="round"/>
<path d="M122.691 83.5716C122.567 83.12 122.5 82.6441 122.5 82.1531C122.5 79.2 124.895 76.8059 127.848 76.8059C128.586 76.8059 129.289 76.9556 129.929 77.2259" stroke="#00004D" stroke-width="0.0962861" stroke-linecap="round" stroke-linejoin="round"/>
<path fill-rule="evenodd" clip-rule="evenodd" d="M97.222 104.032C97.222 109.402 92.8694 113.754 87.4998 113.754C82.1302 113.754 77.7776 109.402 77.7776 104.032H97.222Z" fill="white"/>
<path fill-rule="evenodd" clip-rule="evenodd" d="M107.431 83.6111C107.431 85.7587 105.69 87.4999 103.542 87.4999C101.394 87.4999 99.6531 85.7587 99.6531 83.6111C99.6531 81.4634 101.394 79.7222 103.542 79.7222C105.69 79.7222 107.431 81.4634 107.431 83.6111" fill="#00004D"/>
<path fill-rule="evenodd" clip-rule="evenodd" d="M75.3471 83.6111C75.3471 85.7587 73.6059 87.4999 71.4582 87.4999C69.3106 87.4999 67.5693 85.7587 67.5693 83.6111C67.5693 81.4634 69.3106 79.7222 71.4582 79.7222C73.6059 79.7222 75.3471 81.4634 75.3471 83.6111" fill="#00004D"/>
<path d="M87.4999 79.7222L92.361 96.2499L85.5554 97.2222" stroke="#00004D" stroke-width="0.0962861" stroke-linecap="round" stroke-linejoin="round"/>
<path fill-rule="evenodd" clip-rule="evenodd" d="M121.122 75.1425C122.536 73.7853 124.359 72.8578 126.389 72.5515V70.4861C126.389 63.0262 124.284 56.0593 120.643 50.1399C117.268 44.6541 112.567 40.0769 106.991 36.8394C101.259 33.5115 94.6045 31.5972 87.5 31.5972C80.3955 31.5972 73.7411 33.5115 68.0093 36.8394C62.4327 40.0769 57.732 44.6541 54.3569 50.1399C50.715 56.0593 48.6111 63.0262 48.6111 70.4861V72.5515C50.6411 72.8578 52.4635 73.7853 53.8781 75.1425V74.9315C53.8781 70.1127 56.0262 65.5443 59.7377 62.4706C64.7957 58.2808 71.8846 57.5643 77.6786 60.6569C83.8162 63.9328 91.1837 63.9328 97.3214 60.6569C103.115 57.5643 110.204 58.2808 115.262 62.4706C118.974 65.5443 121.122 70.1127 121.122 74.9315V75.1425Z" fill="#00004D"/>
<path fill-rule="evenodd" clip-rule="evenodd" d="M165.278 175.117L151.163 154.698C146.004 147.236 138.399 141.811 129.663 139.364L109.375 133.681C109.375 145.762 99.5813 155.556 87.4999 155.556V155.556C75.4186 155.556 65.6249 145.762 65.6249 133.681L45.3361 139.364C36.6007 141.811 28.9955 147.236 23.8369 154.698L9.72217 175.117V189.583H165.278V175.117Z" fill="#1D4ED8"/>
<path fill-rule="evenodd" clip-rule="evenodd" d="M96.1805 113.007L92.3806 115.213C89.3628 116.965 85.6372 116.965 82.619 115.213L78.819 113.007C76.8036 111.837 75.9019 109.401 76.6699 107.201L77.3228 105.332C77.595 104.551 78.3315 104.028 79.1583 104.028H95.8412C96.6681 104.028 97.4045 104.551 97.6767 105.332L98.3296 107.201C99.0976 109.401 98.1959 111.837 96.1805 113.007M120.663 88.6874L118.147 96.8963C116.775 101.375 113.335 104.922 108.901 106.43L104.224 108.021L102.353 104.333C100.697 101.067 97.3453 99.009 93.6824 99.009H87.5001H81.3172C77.6549 99.009 74.3031 101.067 72.6465 104.333L70.7759 108.021L66.0986 106.43C61.6642 104.922 58.2245 101.375 56.8522 96.8963L54.3366 88.6874C53.4217 89.6927 52.3047 90.5088 51.0417 91.0611V97.694C51.0417 109.23 57.84 119.681 68.3852 124.358L79.6178 129.338C84.6369 131.563 90.3628 131.563 95.3814 129.338L106.614 124.357C117.159 119.681 123.958 109.23 123.958 97.694V91.0611C122.695 90.5088 121.578 89.6927 120.663 88.6874" fill="#00004D"/>
<path fill-rule="evenodd" clip-rule="evenodd" d="M115.695 85.0696C115.695 91.2442 110.689 96.2501 104.514 96.2501C98.3397 96.2501 93.3337 91.2442 93.3337 85.0696C93.3337 78.8945 98.3397 73.889 104.514 73.889C110.689 73.889 115.695 78.8945 115.695 85.0696Z" stroke="#00004D" stroke-width="0.192572" stroke-linecap="round" stroke-linejoin="round"/>
<path fill-rule="evenodd" clip-rule="evenodd" d="M59.3059 85.0696C59.3059 91.2442 64.3114 96.2501 70.4865 96.2501C76.6615 96.2501 81.667 91.2442 81.667 85.0696C81.667 78.8945 76.6615 73.889 70.4865 73.889C64.3114 73.889 59.3059 78.8945 59.3059 85.0696Z" stroke="#00004D" stroke-width="0.192572" stroke-linecap="round" stroke-linejoin="round"/>
<path d="M80.9741 81.1892C81.8078 78.3736 84.4143 76.3193 87.5002 76.3193C90.5865 76.3193 93.1925 78.3736 94.0267 81.1892" stroke="#00004D" stroke-width="0.192572" stroke-linecap="round" stroke-linejoin="round"/>
</g>
</svg>
