<svg width="175" height="175" viewBox="0 0 175 175" fill="none" xmlns="http://www.w3.org/2000/svg">
<path fill-rule="evenodd" clip-rule="evenodd" d="M87.5 175C135.825 175 175 135.825 175 87.5C175 39.1751 135.825 0 87.5 0C39.1751 0 0 39.1751 0 87.5C0 135.825 39.1751 175 87.5 175Z" fill="#F3F4F6"/>
<mask id="mask0_620_1188" style="mask-type:luminance" maskUnits="userSpaceOnUse" x="0" y="0" width="175" height="175">
<path fill-rule="evenodd" clip-rule="evenodd" d="M87.5 175C135.825 175 175 135.825 175 87.5C175 39.1751 135.825 0 87.5 0C39.1751 0 0 39.1751 0 87.5C0 135.825 39.1751 175 87.5 175Z" fill="white"/>
</mask>
<g mask="url(#mask0_620_1188)">
<path fill-rule="evenodd" clip-rule="evenodd" d="M151.163 154.698C146.004 147.235 138.399 141.811 129.664 139.364L109.375 133.681V119.098C117.952 112.655 123.584 102.516 123.93 91.0473C125.129 91.5757 126.452 91.8752 127.847 91.8752C133.217 91.8752 137.57 87.5225 137.57 82.153C137.57 76.7834 133.217 72.4307 127.847 72.4307C126.463 72.4307 125.15 72.7239 123.959 73.245V70.4863C123.959 50.3506 107.635 34.028 87.5002 34.028H87.4997C67.3645 34.028 51.0419 50.3506 51.0419 70.4863V73.245C49.8499 72.7239 48.5364 72.4307 47.153 72.4307C41.7834 72.4307 37.4307 76.7834 37.4307 82.153C37.4307 87.5225 41.7834 91.8752 47.153 91.8752C48.5476 91.8752 49.8708 91.5762 51.07 91.0473C51.4157 102.516 57.0482 112.655 65.6247 119.098V133.681L45.3364 139.364C36.601 141.811 28.9957 147.235 23.8371 154.698L9.72241 175.117V189.584H165.278V175.117L151.163 154.698Z" fill="#E9ADA1"/>
<path fill-rule="evenodd" clip-rule="evenodd" d="M87.4999 126.389C83.0043 126.389 78.7012 125.57 74.7249 124.082C80.3803 127.695 87.0964 129.792 94.3054 129.792C99.6818 129.792 104.781 128.619 109.375 126.53V119.098C103.281 123.675 95.7078 126.389 87.4999 126.389Z" fill="#DB8B79"/>
<path d="M52.31 83.5716C52.4339 83.12 52.5005 82.6441 52.5005 82.1531C52.5005 79.2 50.1064 76.8059 47.1533 76.8059C46.4149 76.8059 45.7115 76.9556 45.0718 77.2259" stroke="#00004D" stroke-width="0.0962861" stroke-linecap="round" stroke-linejoin="round"/>
<path d="M122.691 83.5716C122.567 83.12 122.5 82.6441 122.5 82.1531C122.5 79.2 124.895 76.8059 127.848 76.8059C128.586 76.8059 129.289 76.9556 129.929 77.2259" stroke="#00004D" stroke-width="0.0962861" stroke-linecap="round" stroke-linejoin="round"/>
<path fill-rule="evenodd" clip-rule="evenodd" d="M97.222 104.032C97.222 109.402 92.8694 113.754 87.4998 113.754C82.1302 113.754 77.7776 109.402 77.7776 104.032H97.222Z" fill="white"/>
<path fill-rule="evenodd" clip-rule="evenodd" d="M107.431 83.6111C107.431 85.7587 105.69 87.4999 103.542 87.4999C101.394 87.4999 99.6531 85.7587 99.6531 83.6111C99.6531 81.4634 101.394 79.7222 103.542 79.7222C105.69 79.7222 107.431 81.4634 107.431 83.6111Z" fill="#00004D"/>
<path fill-rule="evenodd" clip-rule="evenodd" d="M75.3471 83.6111C75.3471 85.7587 73.6059 87.4999 71.4582 87.4999C69.3106 87.4999 67.5693 85.7587 67.5693 83.6111C67.5693 81.4634 69.3106 79.7222 71.4582 79.7222C73.6059 79.7222 75.3471 81.4634 75.3471 83.6111Z" fill="#00004D"/>
<path d="M87.4999 79.7222L92.361 96.2499L85.5554 97.2222" stroke="#00004D" stroke-width="0.0962861" stroke-linecap="round" stroke-linejoin="round"/>
<path fill-rule="evenodd" clip-rule="evenodd" d="M125.201 72.8046L118.818 35.6355C118.418 33.3022 116.395 31.5969 114.027 31.5969H60.9728C58.6055 31.5969 56.5823 33.3022 56.1817 35.6355L49.7996 72.8046C51.99 73.4239 53.8654 74.786 55.1337 76.6084L58.8203 61.3737C59.8762 57.0113 63.7811 53.9381 68.2703 53.9381H106.73C111.219 53.9381 115.124 57.0113 116.179 61.3737L119.866 76.6084C121.135 74.786 123.01 73.4239 125.201 72.8046Z" fill="#00004D"/>
<path fill-rule="evenodd" clip-rule="evenodd" d="M165.278 175.117L151.163 154.698C146.004 147.236 138.399 141.811 129.663 139.364L109.375 133.681C109.375 145.762 99.5813 155.556 87.4999 155.556C75.4186 155.556 65.6249 145.762 65.6249 133.681L45.3361 139.364C36.6007 141.811 28.9955 147.236 23.8369 154.698L9.72217 175.117V189.583H165.278V175.117Z" fill="#1D4ED8"/>
</g>
</svg>
