<svg width="175" height="175" viewBox="0 0 175 175" fill="none" xmlns="http://www.w3.org/2000/svg">
<path fill-rule="evenodd" clip-rule="evenodd" d="M87.5 175C135.825 175 175 135.825 175 87.5C175 39.1751 135.825 0 87.5 0C39.1751 0 0 39.1751 0 87.5C0 135.825 39.1751 175 87.5 175Z" fill="#F3F4F6"/>
<mask id="mask0_620_1187" style="mask-type:luminance" maskUnits="userSpaceOnUse" x="0" y="0" width="175" height="175">
<path fill-rule="evenodd" clip-rule="evenodd" d="M87.5 175C135.825 175 175 135.825 175 87.5C175 39.1751 135.825 0 87.5 0C39.1751 0 0 39.1751 0 87.5C0 135.825 39.1751 175 87.5 175Z" fill="white"/>
</mask>
<g mask="url(#mask0_620_1187)">
<path fill-rule="evenodd" clip-rule="evenodd" d="M151.163 154.698C146.004 147.235 138.399 141.811 129.664 139.364L109.375 133.681V119.098C117.952 112.655 123.584 102.516 123.93 91.0473C125.129 91.5757 126.452 91.8752 127.847 91.8752C133.217 91.8752 137.57 87.5225 137.57 82.153C137.57 76.7834 133.217 72.4307 127.847 72.4307C126.463 72.4307 125.15 72.7239 123.959 73.245V70.4863C123.959 50.3506 107.635 34.028 87.5002 34.028H87.4997C67.3645 34.028 51.0419 50.3506 51.0419 70.4863V73.245C49.8499 72.7239 48.5364 72.4307 47.153 72.4307C41.7834 72.4307 37.4307 76.7834 37.4307 82.153C37.4307 87.5225 41.7834 91.8752 47.153 91.8752C48.5476 91.8752 49.8708 91.5762 51.07 91.0473C51.4157 102.516 57.0482 112.655 65.6247 119.098V133.681L45.3364 139.364C36.601 141.811 28.9957 147.235 23.8371 154.698L9.72241 175.117V189.584H165.278V175.117L151.163 154.698Z" fill="#E9ADA1"/>
<path fill-rule="evenodd" clip-rule="evenodd" d="M87.4999 126.389C83.0043 126.389 78.7012 125.57 74.7249 124.082C80.3803 127.695 87.0964 129.792 94.3054 129.792C99.6818 129.792 104.781 128.619 109.375 126.53V119.098C103.281 123.675 95.7078 126.389 87.4999 126.389Z" fill="#DB8B79"/>
<path d="M52.31 83.5716C52.4339 83.12 52.5005 82.6441 52.5005 82.1531C52.5005 79.2 50.1064 76.8059 47.1533 76.8059C46.4149 76.8059 45.7115 76.9556 45.0718 77.2259" stroke="#00004D" stroke-width="0.0962861" stroke-linecap="round" stroke-linejoin="round"/>
<path d="M122.691 83.5716C122.567 83.12 122.5 82.6441 122.5 82.1531C122.5 79.2 124.895 76.8059 127.848 76.8059C128.586 76.8059 129.289 76.9556 129.929 77.2259" stroke="#00004D" stroke-width="0.0962861" stroke-linecap="round" stroke-linejoin="round"/>
<path fill-rule="evenodd" clip-rule="evenodd" d="M97.222 104.032C97.222 109.402 92.8694 113.754 87.4998 113.754C82.1302 113.754 77.7776 109.402 77.7776 104.032H97.222Z" fill="white"/>
<path fill-rule="evenodd" clip-rule="evenodd" d="M107.431 83.6111C107.431 85.7587 105.69 87.4999 103.542 87.4999C101.394 87.4999 99.6531 85.7587 99.6531 83.6111C99.6531 81.4634 101.394 79.7222 103.542 79.7222C105.69 79.7222 107.431 81.4634 107.431 83.6111Z" fill="#00004D"/>
<path fill-rule="evenodd" clip-rule="evenodd" d="M75.3471 83.6111C75.3471 85.7587 73.6059 87.4999 71.4582 87.4999C69.3106 87.4999 67.5693 85.7587 67.5693 83.6111C67.5693 81.4634 69.3106 79.7222 71.4582 79.7222C73.6059 79.7222 75.3471 81.4634 75.3471 83.6111Z" fill="#00004D"/>
<path d="M87.4999 79.7222L92.361 96.2499L85.5554 97.2222" stroke="#00004D" stroke-width="0.0962861" stroke-linecap="round" stroke-linejoin="round"/>
<path fill-rule="evenodd" clip-rule="evenodd" d="M127.847 72.4305C128.878 72.4305 129.87 72.5939 130.802 72.8909C131.21 72.0961 131.442 71.1958 131.442 70.2401C131.442 68.0706 130.254 66.1816 128.497 65.1768C131.094 63.6592 132.843 60.8489 132.843 57.6241C132.843 53.2379 129.612 49.6154 125.403 48.9825C126.071 47.7896 126.456 46.4158 126.456 44.9512C126.456 40.3871 122.756 36.6873 118.193 36.6873C116.492 36.6873 114.913 37.2021 113.599 38.0824C113.6 38.0241 113.603 37.9667 113.603 37.9079C113.603 32.0017 108.815 27.2135 102.909 27.2135C100.348 27.2135 97.998 28.1152 96.1561 29.6168C94.5476 26.4668 91.2795 24.3055 87.5 24.3055C83.7204 24.3055 80.4523 26.4668 78.8438 29.6168C77.0019 28.1152 74.6521 27.2135 72.0912 27.2135C66.185 27.2135 61.3968 32.0017 61.3968 37.9079C61.3968 37.9667 61.4002 38.0241 61.4011 38.0824C60.0872 37.2021 58.5078 36.6873 56.8074 36.6873C52.2438 36.6873 48.5435 40.3871 48.5435 44.9512C48.5435 46.4158 48.9285 47.7896 49.5969 48.9825C45.3877 49.6154 42.1565 53.2379 42.1565 57.6241C42.1565 60.8489 43.906 63.6592 46.5033 65.1768C44.7455 66.1816 43.558 68.0706 43.558 70.2401C43.558 71.1958 43.7927 72.0946 44.1996 72.8904C45.1315 72.5939 46.1227 72.4305 47.1527 72.4305C50.4739 72.4305 53.4017 74.0984 55.1561 76.6388L58.2842 64.2051C59.3716 59.884 63.2571 56.8551 67.7128 56.8551H107.287C111.743 56.8551 115.628 59.884 116.716 64.2051L119.844 76.6383C121.598 74.0984 124.527 72.4305 127.847 72.4305Z" fill="#00004D"/>
<path fill-rule="evenodd" clip-rule="evenodd" d="M165.278 175.117L151.163 154.698C146.004 147.236 138.399 141.811 129.663 139.364L109.375 133.681C109.375 145.762 99.5813 155.556 87.4999 155.556C75.4186 155.556 65.6249 145.762 65.6249 133.681L45.3361 139.364C36.6007 141.811 28.9955 147.236 23.8369 154.698L9.72217 175.117V189.583H165.278V175.117Z" fill="#1D4ED8"/>
<path fill-rule="evenodd" clip-rule="evenodd" d="M100.625 105.701H74.375V105.701C74.375 101.943 77.4219 98.8956 81.1806 98.8956H93.8194C97.5781 98.8956 100.625 101.943 100.625 105.701V105.701Z" fill="#00004D"/>
<path fill-rule="evenodd" clip-rule="evenodd" d="M110.848 73.8889H96.2643C94.1337 73.8889 92.3278 75.2617 91.6716 77.1692C91.0489 76.3584 90.0737 75.8334 88.9727 75.8334H85.7989C84.6983 75.8334 83.7222 76.3584 83.1005 77.1692C82.4432 75.2617 80.6378 73.8889 78.5072 73.8889H63.9239C61.2391 73.8889 59.0627 76.0657 59.0627 78.75V82.1528C59.0627 88.865 64.5038 94.3056 71.2155 94.3056C77.9273 94.3056 83.3683 88.865 83.3683 82.1528C83.3683 80.2735 84.8918 78.75 86.7711 78.75H88.0005C89.8798 78.75 91.4032 80.2735 91.4032 82.1528C91.4032 88.865 96.8438 94.3056 103.556 94.3056C110.268 94.3056 115.709 88.865 115.709 82.1528V78.75C115.709 76.0657 113.532 73.8889 110.848 73.8889Z" fill="#000066"/>
</g>
</svg>
